<svg width="18" height="18" viewBox="0 0 18 18" fill="none" xmlns="http://www.w3.org/2000/svg">
<path d="M8.9974 15.6641C10.7655 15.6641 12.4612 14.9617 13.7114 13.7114C14.9617 12.4612 15.6641 10.7655 15.6641 8.9974C15.6641 7.22929 14.9617 5.53359 13.7114 4.28335C12.4612 3.03311 10.7655 2.33073 8.9974 2.33073C7.22929 2.33073 5.53359 3.03311 4.28335 4.28335C3.03311 5.53359 2.33073 7.22929 2.33073 8.9974C2.33073 10.7655 3.03311 12.4612 4.28335 13.7114C5.53359 14.9617 7.22929 15.6641 8.9974 15.6641ZM8.9974 0.664062C10.0917 0.664063 11.1754 0.879611 12.1864 1.2984C13.1975 1.71719 14.1161 2.33102 14.89 3.10484C15.6638 3.87866 16.2776 4.79732 16.6964 5.80837C17.1152 6.81941 17.3307 7.90305 17.3307 8.9974C17.3307 11.2075 16.4528 13.3271 14.89 14.89C13.3271 16.4528 11.2075 17.3307 8.9974 17.3307C4.38906 17.3307 0.664062 13.5807 0.664062 8.9974C0.664063 6.78726 1.54204 4.66764 3.10484 3.10484C4.66764 1.54204 6.78726 0.664063 8.9974 0.664062ZM9.41406 4.83073V9.20573L13.1641 11.4307L12.5391 12.4557L8.16406 9.83073V4.83073H9.41406Z" fill="black" fill-opacity="0.5"/>
</svg>
