<svg width="12" height="24" viewBox="0 0 12 24" fill="none" xmlns="http://www.w3.org/2000/svg">
  <path d="M0.669063 2.49566L9.31469 11.28C9.5043 11.4717 9.61066 11.7304 9.61066 12C9.61066 12.2696 9.5043 12.5284 9.31469 12.72L0.670939 21.5044C0.481422 21.6973 0.375228 21.9568 0.375228 22.2272C0.375228 22.4976 0.481421 22.7572 0.670938 22.95C0.76352 23.045 0.874175 23.1205 0.996382 23.172C1.11859 23.2235 1.24987 23.2501 1.3825 23.2501C1.51513 23.2501 1.64641 23.2235 1.76862 23.172C1.89083 23.1205 2.00148 23.045 2.09406 22.95L10.7378 14.1675C11.3058 13.5891 11.624 12.8107 11.624 12C11.624 11.1893 11.3058 10.411 10.7378 9.83254L2.09406 1.05004C2.00145 0.954784 1.89068 0.879067 1.7683 0.827365C1.64592 0.775662 1.51442 0.749023 1.38156 0.749023C1.24871 0.749023 1.11721 0.775662 0.994826 0.827364C0.872447 0.879067 0.761675 0.954784 0.669064 1.05004C0.479547 1.24289 0.373354 1.50246 0.373354 1.77285C0.373354 2.04324 0.479546 2.30281 0.669063 2.49566Z" fill="black" transform="scale(-1, 1) translate(-12, 0)"/>
</svg>
