<svg width="156" height="188" viewBox="0 0 156 188" fill="none" xmlns="http://www.w3.org/2000/svg">
<path d="M1.75976 105.76C2.88476 104.637 4.40975 104.006 5.99976 104.006C7.58977 104.006 9.11477 104.637 10.2398 105.76L71.9998 167.51L71.9998 6.00039C71.9998 4.4091 72.6319 2.88296 73.7571 1.75774C74.8824 0.632531 76.4085 0.000389784 77.9998 0.000389923C79.5911 0.000390062 81.1172 0.632531 82.2424 1.75775C83.3676 2.88296 83.9998 4.4091 83.9998 6.00039L83.9998 167.51L145.76 105.76C146.897 104.701 148.402 104.124 149.956 104.151C151.51 104.178 152.993 104.808 154.093 105.907C155.192 107.007 155.822 108.49 155.849 110.044C155.877 111.599 155.3 113.103 154.24 114.24L82.2398 186.24C81.1148 187.364 79.5898 187.995 77.9998 187.995C76.4098 187.995 74.8848 187.364 73.7598 186.24L1.75976 114.24C0.636161 113.115 0.00504208 111.59 0.00504222 110C0.00504236 108.41 0.636161 106.885 1.75976 105.76Z" fill="black"/>
</svg>
