<svg width="156" height="188" viewBox="0 0 156 188" fill="none" xmlns="http://www.w3.org/2000/svg">
<path d="M154.24 82.2406C153.115 83.3642 151.59 83.9953 150 83.9953C148.41 83.9953 146.885 83.3642 145.76 82.2406L84.0002 20.4906V182.001C84.0002 183.592 83.3681 185.118 82.2429 186.243C81.1177 187.368 79.5915 188.001 78.0002 188.001C76.4089 188.001 74.8828 187.368 73.7576 186.243C72.6324 185.118 72.0002 183.592 72.0002 182.001V20.4906L10.2402 82.2406C9.10284 83.3004 7.59846 83.8774 6.04406 83.85C4.48965 83.8226 3.00657 83.1929 1.90726 82.0936C0.807957 80.9942 0.178263 79.5112 0.150837 77.9568C0.123411 76.4024 0.700395 74.898 1.76023 73.7606L73.7602 1.76058C74.8852 0.636974 76.4102 0.00585938 78.0002 0.00585938C79.5902 0.00585938 81.1152 0.636974 82.2402 1.76058L154.24 73.7606C155.364 74.8856 155.995 76.4106 155.995 78.0006C155.995 79.5906 155.364 81.1156 154.24 82.2406Z" fill="black"/>
</svg>
