<svg width="22" height="14" viewBox="0 0 22 14" fill="none" xmlns="http://www.w3.org/2000/svg">
<path d="M10.9998 4.25C10.2705 4.25 9.57102 4.53973 9.05529 5.05546C8.53957 5.57118 8.24984 6.27065 8.24984 7C8.24984 7.72935 8.53957 8.42882 9.05529 8.94454C9.57102 9.46027 10.2705 9.75 10.9998 9.75C11.7292 9.75 12.4287 9.46027 12.9444 8.94454C13.4601 8.42882 13.7498 7.72935 13.7498 7C13.7498 6.27065 13.4601 5.57118 12.9444 5.05546C12.4287 4.53973 11.7292 4.25 10.9998 4.25ZM10.9998 11.5833C9.78426 11.5833 8.61847 11.1004 7.75893 10.2409C6.89939 9.38136 6.4165 8.21558 6.4165 7C6.4165 5.78442 6.89939 4.61864 7.75893 3.75909C8.61847 2.89955 9.78426 2.41667 10.9998 2.41667C12.2154 2.41667 13.3812 2.89955 14.2407 3.75909C15.1003 4.61864 15.5832 5.78442 15.5832 7C15.5832 8.21558 15.1003 9.38136 14.2407 10.2409C13.3812 11.1004 12.2154 11.5833 10.9998 11.5833ZM10.9998 0.125C6.4165 0.125 2.50234 2.97583 0.916504 7C2.50234 11.0242 6.4165 13.875 10.9998 13.875C15.5832 13.875 19.4973 11.0242 21.0832 7C19.4973 2.97583 15.5832 0.125 10.9998 0.125Z" fill="black" fill-opacity="0.8"/>
</svg>
