<svg width="20" height="20" viewBox="0 0 20 20" fill="none" xmlns="http://www.w3.org/2000/svg">
<path d="M18.3334 10.0667C18.3237 12.1128 17.5616 14.0837 16.1923 15.6041C14.823 17.1244 12.9423 18.0879 10.9084 18.3109V12.3334H12.8667C12.9529 12.3339 13.0363 12.3028 13.1011 12.246C13.1659 12.1891 13.2076 12.1106 13.2184 12.0251L13.4301 10.1901C13.4377 10.1419 13.4348 10.0926 13.4214 10.0457C13.408 9.99878 13.3846 9.95535 13.3526 9.91845C13.3207 9.88154 13.2812 9.85205 13.2367 9.83204C13.1922 9.81202 13.1439 9.80196 13.0951 9.80256H10.9084V8.30257C10.9084 7.6059 11.1026 7.13006 12.0984 7.13006H13.0251C13.1171 7.12767 13.2046 7.08936 13.2687 7.02334C13.3329 6.95731 13.3687 6.8688 13.3684 6.77673V5.1984C13.3662 5.10636 13.3281 5.01883 13.2623 4.95451C13.1964 4.8902 13.108 4.85421 13.0159 4.85423H11.5167C11.0956 4.82412 10.673 4.88627 10.2784 5.03633C9.88381 5.18639 9.5267 5.42075 9.23201 5.72307C8.93731 6.02538 8.71213 6.38835 8.57219 6.78667C8.43225 7.18498 8.3809 7.60903 8.42175 8.02923V9.79257H6.94925C6.90327 9.79255 6.85775 9.80175 6.81539 9.81961C6.77302 9.83748 6.73467 9.86365 6.70259 9.89659C6.6705 9.92952 6.64535 9.96855 6.6286 10.0114C6.61185 10.0542 6.60386 10.0999 6.60508 10.1459V11.9792C6.60508 12.0705 6.64134 12.1581 6.70588 12.2226C6.77043 12.2871 6.85797 12.3234 6.94925 12.3234H8.42175V18.1876C6.53089 17.8229 4.82469 16.8146 3.59322 15.3341C2.36174 13.8537 1.68101 11.9924 1.66675 10.0667C1.66675 7.85659 2.54472 5.73698 4.10752 4.17418C5.67033 2.61137 7.78994 1.7334 10.0001 1.7334C12.2102 1.7334 14.3298 2.61137 15.8926 4.17418C17.4554 5.73698 18.3334 7.85659 18.3334 10.0667Z" fill="white"/>
</svg>
