<svg width="35" height="35" viewBox="0 0 35 35" fill="none" xmlns="http://www.w3.org/2000/svg">
<path fill-rule="evenodd" clip-rule="evenodd" d="M10.5 0C7.71523 0 5.04451 1.10625 3.07538 3.07538C1.10625 5.04451 0 7.71523 0 10.5L0 24.5C0 27.2848 1.10625 29.9555 3.07538 31.9246C5.04451 33.8937 7.71523 35 10.5 35H24.5C27.2848 35 29.9555 33.8937 31.9246 31.9246C33.8937 29.9555 35 27.2848 35 24.5V10.5C35 7.71523 33.8937 5.04451 31.9246 3.07538C29.9555 1.10625 27.2848 0 24.5 0L10.5 0ZM9.33333 17.5C9.33333 15.3341 10.1937 13.2568 11.7253 11.7253C13.2568 10.1937 15.3341 9.33333 17.5 9.33333C19.6659 9.33333 21.7432 10.1937 23.2747 11.7253C24.8063 13.2568 25.6667 15.3341 25.6667 17.5C25.6667 19.6659 24.8063 21.7432 23.2747 23.2747C21.7432 24.8063 19.6659 25.6667 17.5 25.6667C15.3341 25.6667 13.2568 24.8063 11.7253 23.2747C10.1937 21.7432 9.33333 19.6659 9.33333 17.5ZM25.6667 9.33333H28V7H25.6667V9.33333Z" fill="white"/>
</svg>
