<svg width="16" height="16" viewBox="0 0 16 16" fill="none" xmlns="http://www.w3.org/2000/svg">
<g clip-path="url(#clip0_3039_4445)">
<path d="M7.99992 5.33301C7.29267 5.33301 6.6144 5.61396 6.1143 6.11406C5.6142 6.61415 5.33325 7.29243 5.33325 7.99967C5.33325 8.70692 5.6142 9.3852 6.1143 9.88529C6.6144 10.3854 7.29267 10.6663 7.99992 10.6663C8.70716 10.6663 9.38544 10.3854 9.88554 9.88529C10.3856 9.3852 10.6666 8.70692 10.6666 7.99967C10.6666 7.29243 10.3856 6.61415 9.88554 6.11406C9.38544 5.61396 8.70716 5.33301 7.99992 5.33301Z" fill="white"/>
<path fill-rule="evenodd" clip-rule="evenodd" d="M4.8 0C3.52696 0 2.30606 0.505713 1.40589 1.40589C0.505713 2.30606 0 3.52696 0 4.8L0 11.2C0 12.473 0.505713 13.6939 1.40589 14.5941C2.30606 15.4943 3.52696 16 4.8 16H11.2C12.473 16 13.6939 15.4943 14.5941 14.5941C15.4943 13.6939 16 12.473 16 11.2V4.8C16 3.52696 15.4943 2.30606 14.5941 1.40589C13.6939 0.505713 12.473 0 11.2 0L4.8 0ZM4.26667 8C4.26667 7.00986 4.66 6.06027 5.36014 5.36014C6.06027 4.66 7.00986 4.26667 8 4.26667C8.99014 4.26667 9.93973 4.66 10.6399 5.36014C11.34 6.06027 11.7333 7.00986 11.7333 8C11.7333 8.99014 11.34 9.93973 10.6399 10.6399C9.93973 11.34 8.99014 11.7333 8 11.7333C7.00986 11.7333 6.06027 11.34 5.36014 10.6399C4.66 9.93973 4.26667 8.99014 4.26667 8ZM11.7333 4.26667H12.8V3.2H11.7333V4.26667Z" fill="white"/>
</g>
<defs>
<clipPath id="clip0_3039_4445">
<rect width="16" height="16" fill="white"/>
</clipPath>
</defs>
</svg>
