<svg width="24" height="24" viewBox="0 0 24 24" fill="none" xmlns="http://www.w3.org/2000/svg">
<g clip-path="url(#clip0_3039_4791)">
<path d="M10.2322 10.2312C11.1394 9.32411 12.3604 8.80041 13.6429 8.76839C14.9253 8.73638 16.171 9.1985 17.1222 10.0592L17.3032 10.2312L20.1312 13.0602C21.0523 13.9828 21.5765 15.2288 21.5922 16.5324C21.6079 17.836 21.1138 19.0941 20.2153 20.0387C19.3167 20.9833 18.0848 21.5396 16.782 21.589C15.4793 21.6384 14.2087 21.177 13.2412 20.3032L13.0612 20.1312L10.9392 18.0092C10.7599 17.8292 10.6558 17.5877 10.648 17.3338C10.6402 17.0798 10.7294 16.8325 10.8975 16.6419C11.0655 16.4513 11.2998 16.3319 11.5527 16.3078C11.8056 16.2837 12.0582 16.3568 12.2592 16.5122L12.3532 16.5952L14.4752 18.7172C15.0253 19.2705 15.7693 19.5877 16.5494 19.6016C17.3294 19.6154 18.0842 19.3249 18.6536 18.7915C19.223 18.2581 19.5622 17.5239 19.5993 16.7446C19.6364 15.9653 19.3684 15.2022 18.8522 14.6172L18.7172 14.4742L15.8892 11.6462C15.6106 11.3675 15.2799 11.1465 14.9159 10.9957C14.5519 10.8449 14.1617 10.7673 13.7677 10.7673C13.3737 10.7673 12.9836 10.8449 12.6196 10.9957C12.2556 11.1465 11.9248 11.3675 11.6462 11.6462C11.4586 11.8337 11.2041 11.939 10.9389 11.9389C10.6736 11.9388 10.4192 11.8333 10.2317 11.6457C10.0442 11.458 9.93893 11.2036 9.93903 10.9383C9.93912 10.6731 10.0446 10.4187 10.2322 10.2312ZM3.86823 3.86718C4.77536 2.96011 5.99643 2.43641 7.27886 2.40439C8.56129 2.37238 9.80697 2.8345 10.7582 3.69518L10.9392 3.86718L13.0602 5.99018C13.2396 6.17013 13.3437 6.41161 13.3515 6.66556C13.3592 6.91951 13.27 7.16689 13.102 7.35745C12.9339 7.54802 12.6997 7.66748 12.4468 7.69158C12.1938 7.71567 11.9412 7.64259 11.7402 7.48718L11.6462 7.40418L9.52523 5.28318C8.9742 4.73573 8.23232 4.42335 7.45566 4.41175C6.67901 4.40015 5.92813 4.69023 5.36099 5.22096C4.79385 5.7517 4.45467 6.48172 4.4148 7.25743C4.37494 8.03315 4.63749 8.79409 5.14723 9.38018L5.28223 9.52418L8.11123 12.3532C8.67381 12.9156 9.43674 13.2315 10.2322 13.2315C11.0277 13.2315 11.7906 12.9156 12.3532 12.3532C12.4461 12.2603 12.5563 12.1866 12.6776 12.1362C12.799 12.0859 12.929 12.06 13.0604 12.06C13.1917 12.0599 13.3218 12.0858 13.4432 12.136C13.5645 12.1862 13.6748 12.2598 13.7677 12.3527C13.8606 12.4455 13.9344 12.5558 13.9847 12.6771C14.035 12.7984 14.0609 12.9285 14.0609 13.0598C14.061 13.1912 14.0352 13.3212 13.9849 13.4426C13.9347 13.564 13.8611 13.6743 13.7682 13.7672C12.8611 14.6742 11.64 15.1979 10.3576 15.23C9.07517 15.262 7.82949 14.7999 6.87823 13.9392L6.69623 13.7672L3.86823 10.9382C2.93087 10.0005 2.4043 8.729 2.4043 7.40318C2.4043 6.07735 2.93087 4.80481 3.86823 3.86718Z" fill="black" fill-opacity="0.5"/>
</g>
<defs>
<clipPath id="clip0_3039_4791">
<rect width="24" height="24" fill="white"/>
</clipPath>
</defs>
</svg>
