<svg width="15" height="15" viewBox="0 0 10 12" fill="none" xmlns="http://www.w3.org/2000/svg">
<path d="M4.99935 5.70817C4.61258 5.70817 4.24164 5.55452 3.96815 5.28103C3.69466 5.00754 3.54102 4.63661 3.54102 4.24984C3.54102 3.86306 3.69466 3.49213 3.96815 3.21864C4.24164 2.94515 4.61258 2.7915 4.99935 2.7915C5.38612 2.7915 5.75706 2.94515 6.03055 3.21864C6.30404 3.49213 6.45768 3.86306 6.45768 4.24984C6.45768 4.44135 6.41996 4.63098 6.34667 4.80792C6.27339 4.98485 6.16597 5.14562 6.03055 5.28103C5.89513 5.41645 5.73436 5.52387 5.55743 5.59716C5.3805 5.67045 5.19086 5.70817 4.99935 5.70817ZM4.99935 0.166504C3.91638 0.166504 2.87777 0.596711 2.112 1.36248C1.34622 2.12826 0.916016 3.16687 0.916016 4.24984C0.916016 7.31234 4.99935 11.8332 4.99935 11.8332C4.99935 11.8332 9.08268 7.31234 9.08268 4.24984C9.08268 3.16687 8.65248 2.12826 7.8867 1.36248C7.12093 0.596711 6.08232 0.166504 4.99935 0.166504Z" fill="white"/>
</svg>
