<svg width="15" height="13" viewBox="0 0 9 13" fill="none" xmlns="http://www.w3.org/2000/svg">
<path d="M0.4375 1.625C0.4375 1.19402 0.608705 0.780698 0.913451 0.475951C1.2182 0.171205 1.63152 0 2.0625 0L6.9375 0C7.36848 0 7.7818 0.171205 8.08655 0.475951C8.39129 0.780698 8.5625 1.19402 8.5625 1.625V11.375C8.5625 11.806 8.39129 12.2193 8.08655 12.524C7.7818 12.8288 7.36848 13 6.9375 13H2.0625C1.63152 13 1.2182 12.8288 0.913451 12.524C0.608705 12.2193 0.4375 11.806 0.4375 11.375V1.625ZM5.3125 10.5625C5.3125 10.347 5.2269 10.1403 5.07452 9.98798C4.92215 9.8356 4.71549 9.75 4.5 9.75C4.28451 9.75 4.07785 9.8356 3.92548 9.98798C3.7731 10.1403 3.6875 10.347 3.6875 10.5625C3.6875 10.778 3.7731 10.9847 3.92548 11.137C4.07785 11.2894 4.28451 11.375 4.5 11.375C4.71549 11.375 4.92215 11.2894 5.07452 11.137C5.2269 10.9847 5.3125 10.778 5.3125 10.5625Z" fill="white"/>
</svg>
