<svg width="256" height="256" viewBox="0 0 256 256" fill="none" xmlns="http://www.w3.org/2000/svg">
<path d="M139.761 204.239C138.638 203.114 138.007 201.589 138.007 199.999C138.007 198.409 138.638 196.884 139.761 195.759L201.511 133.999L40.0014 133.999C38.4101 133.999 36.8839 133.367 35.7587 132.241C34.6335 131.116 34.0014 129.59 34.0014 127.999C34.0014 126.407 34.6335 124.881 35.7587 123.756C36.8839 122.631 38.4101 121.999 40.0014 121.999L201.511 121.999L139.761 60.2388C138.702 59.1014 138.125 57.597 138.152 56.0426C138.179 54.4882 138.809 53.0051 139.908 51.9058C141.008 50.8065 142.491 50.1768 144.045 50.1494C145.6 50.1219 147.104 50.6989 148.241 51.7588L220.241 123.759C221.365 124.884 221.996 126.409 221.996 127.999C221.996 129.589 221.365 131.114 220.241 132.239L148.241 204.239C147.116 205.362 145.591 205.993 144.001 205.993C142.411 205.993 140.886 205.362 139.761 204.239Z" fill="white" stroke="white" stroke-width="6"/>
</svg>
