<svg width="18" height="19" viewBox="0 0 18 19" fill="none" xmlns="http://www.w3.org/2000/svg">
<path d="M8.9974 16.5C10.7655 16.5 12.4612 15.7625 13.7114 14.4497C14.9617 13.137 15.6641 11.3565 15.6641 9.5C15.6641 7.64348 14.9617 5.86301 13.7114 4.55025C12.4612 3.2375 10.7655 2.5 8.9974 2.5C7.22929 2.5 5.53359 3.2375 4.28335 4.55025C3.03311 5.86301 2.33073 7.64348 2.33073 9.5C2.33073 11.3565 3.03311 13.137 4.28335 14.4497C5.53359 15.7625 7.22929 16.5 8.9974 16.5ZM8.9974 0.75C10.0917 0.75 11.1754 0.976325 12.1864 1.41605C13.1975 1.85578 14.1161 2.5003 14.89 3.31282C15.6638 4.12533 16.2776 5.08992 16.6964 6.15152C17.1152 7.21312 17.3307 8.35093 17.3307 9.5C17.3307 11.8206 16.4528 14.0462 14.89 15.6872C13.3271 17.3281 11.2075 18.25 8.9974 18.25C4.38906 18.25 0.664062 14.3125 0.664062 9.5C0.664063 7.17936 1.54204 4.95376 3.10484 3.31282C4.66764 1.67187 6.78726 0.75 8.9974 0.75ZM9.41406 5.125V9.71875L13.1641 12.055L12.5391 13.1312L8.16406 10.375V5.125H9.41406Z" fill="white"/>
</svg>
