<svg width="34" height="38" viewBox="0 0 34 38" fill="none" xmlns="http://www.w3.org/2000/svg">
<path fill-rule="evenodd" clip-rule="evenodd" d="M15.0013 6.83398C16.3551 6.83398 17.7436 6.87157 19.0895 6.93307L20.6791 7.01507L22.2007 7.11244L23.6257 7.21665L24.9272 7.32598C26.3396 7.44263 27.6687 8.09294 28.6806 9.16251C29.6924 10.2321 30.3223 11.6524 30.4594 13.1736L30.5227 13.8997L30.6415 15.4542C30.7523 17.0652 30.8346 18.8214 30.8346 20.5007C30.8346 22.1799 30.7523 23.9361 30.6415 25.5471L30.5227 27.1017C30.5021 27.3511 30.4816 27.5919 30.4594 27.8277C30.3223 29.3492 29.6921 30.7697 28.6799 31.8393C27.6678 32.9089 26.3383 33.5591 24.9256 33.6753L23.6273 33.7829L22.2023 33.8889L20.6791 33.9862L19.0895 34.0682C17.7275 34.1321 16.3645 34.1651 15.0013 34.1673C13.6381 34.1651 12.2751 34.1321 10.9131 34.0682L9.32347 33.9862L7.80188 33.8889L6.37688 33.7829L5.07539 33.6753C3.66297 33.5587 2.33393 32.9084 1.32205 31.8388C0.310175 30.7692 -0.319705 29.3489 -0.456781 27.8277L-0.520115 27.1017L-0.638865 25.5471C-0.75993 23.868 -0.824362 22.1848 -0.832031 20.5007C-0.832031 18.8214 -0.749698 17.0652 -0.638865 15.4542L-0.520115 13.8997C-0.499531 13.6502 -0.478948 13.4094 -0.456781 13.1736C-0.319759 11.6527 0.309895 10.2326 1.32145 9.16303C2.333 8.09349 3.66167 7.44301 5.0738 7.32598L6.37372 7.21665L7.79872 7.11244L9.32189 7.01507L10.9116 6.93307C12.274 6.86923 13.6376 6.8362 15.0013 6.83398ZM11.8346 16.3579V24.6434C11.8346 25.4326 12.6263 25.9246 13.2596 25.5317L19.9096 21.389C20.0543 21.2991 20.1745 21.1697 20.2581 21.0137C20.3417 20.8578 20.3857 20.6808 20.3857 20.5007C20.3857 20.3205 20.3417 20.1435 20.2581 19.9876C20.1745 19.8316 20.0543 19.7022 19.9096 19.6123L13.2596 15.4713C13.1152 15.3813 12.9513 15.334 12.7845 15.334C12.6177 15.334 12.4538 15.3814 12.3094 15.4715C12.1649 15.5615 12.045 15.691 11.9617 15.8469C11.8783 16.0028 11.8345 16.1797 11.8346 16.3597V16.3579Z" fill="white
"/>
</svg>
